<svg xmlns="http://www.w3.org/2000/svg" data-name="Layer 1" viewBox="0 0 100 125" x="0px" y="0px"><title>03</title><path d="M76.86,34.34,82.17,28,72,17.83l-6.39,5.31a30.79,30.79,0,0,0-7.73-3.21l-.76-8.27H42.84l-.76,8.27a30.74,30.74,0,0,0-7.73,3.21L28,17.83,17.83,28l5.31,6.39a30.75,30.75,0,0,0-3.21,7.73l-8.27.76V57.16l8.27.76a30.76,30.76,0,0,0,3.21,7.73L17.83,72,28,82.17l6.39-5.31a30.76,30.76,0,0,0,7.73,3.21l.76,8.27H57.16l.76-8.27a30.78,30.78,0,0,0,7.73-3.21L72,82.17,82.17,72l-5.31-6.39a30.8,30.8,0,0,0,3.21-7.73l8.27-.76V42.84l-8.27-.76A30.82,30.82,0,0,0,76.86,34.34Zm7.48,19.17-7.54.7-.31,1.44a26.87,26.87,0,0,1-3.77,9.09L71.93,66l4.84,5.83-5,5L66,71.92l-1.24.8a26.84,26.84,0,0,1-9.09,3.77l-1.44.31-.7,7.54h-7l-.7-7.54-1.44-.31a26.84,26.84,0,0,1-9.09-3.77L34,71.92,28.2,76.77l-5-5L28.08,66l-.8-1.23a26.81,26.81,0,0,1-3.77-9.09l-.31-1.44-7.54-.7v-7l7.54-.7.31-1.44a26.8,26.8,0,0,1,3.77-9.09l.8-1.24L23.23,28.2l5-5L34,28.08l1.24-.8a26.84,26.84,0,0,1,9.09-3.77l1.44-.31.7-7.54h7l.7,7.54,1.44.31a26.83,26.83,0,0,1,9.09,3.77l1.24.8,5.83-4.84,5,5L71.93,34l.8,1.24a26.87,26.87,0,0,1,3.77,9.09l.31,1.44,7.54.7Z"/><path d="M50,34.38A15.62,15.62,0,1,0,65.62,50,15.64,15.64,0,0,0,50,34.38Zm0,27.24A11.62,11.62,0,1,1,61.62,50,11.63,11.63,0,0,1,50,61.62Z"/><text x="0" y="115" fill="#000000" font-size="5px" font-weight="bold" font-family="'Helvetica Neue', Helvetica, Arial-Unicode, Arial, Sans-serif">Created by Bhima</text><text x="0" y="120" fill="#000000" font-size="5px" font-weight="bold" font-family="'Helvetica Neue', Helvetica, Arial-Unicode, Arial, Sans-serif">from the Noun Project</text></svg>