<?xml version="1.0" encoding="UTF-8" standalone="no"?>
<svg
   xmlns:dc="http://purl.org/dc/elements/1.1/"
   xmlns:cc="http://creativecommons.org/ns#"
   xmlns:rdf="http://www.w3.org/1999/02/22-rdf-syntax-ns#"
   xmlns:svg="http://www.w3.org/2000/svg"
   xmlns="http://www.w3.org/2000/svg"
   xmlns:sodipodi="http://sodipodi.sourceforge.net/DTD/sodipodi-0.dtd"
   xmlns:inkscape="http://www.inkscape.org/namespaces/inkscape"
   version="1.1"
   x="0px"
   y="0px"
   viewBox="0 0 80 100"
   enable-background="new 0 0 80 80"
   xml:space="preserve"
   id="svg825"
   sodipodi:docname="noun_Image_982151.svg"
   inkscape:export-filename="C:\Users\Voxel8\Documents\Visual Studio 2017\Projects\Voxel8RhinoPlugin\Voxel8RhinoPlugin\Resources\imager.png"
   inkscape:export-xdpi="56.669552"
   inkscape:export-ydpi="56.669552"
   inkscape:version="0.92.2 (5c3e80d, 2017-08-06)"><metadata
     id="metadata831"><rdf:RDF><cc:Work
         rdf:about=""><dc:format>image/svg+xml</dc:format><dc:type
           rdf:resource="http://purl.org/dc/dcmitype/StillImage" /></cc:Work></rdf:RDF></metadata><defs
     id="defs829" /><sodipodi:namedview
     pagecolor="#ffffff"
     bordercolor="#666666"
     borderopacity="1"
     objecttolerance="10"
     gridtolerance="10"
     guidetolerance="10"
     inkscape:pageopacity="0"
     inkscape:pageshadow="2"
     inkscape:window-width="2560"
     inkscape:window-height="1377"
     id="namedview827"
     showgrid="false"
     inkscape:zoom="12.08"
     inkscape:cx="42.651613"
     inkscape:cy="62.702085"
     inkscape:window-x="2552"
     inkscape:window-y="-8"
     inkscape:window-maximized="1"
     inkscape:current-layer="svg825" /><g
     id="g819"
     inkscape:export-filename="C:\Users\Voxel8\Documents\Visual Studio 2017\Projects\Voxel8RhinoPlugin\Voxel8RhinoPlugin\Resources\imagel.png"
     inkscape:export-xdpi="56.669552"
     inkscape:export-ydpi="56.669552"><path
       d="M72.936,66.359L47.92,21.966c-0.087-0.154-0.248-0.25-0.425-0.254c-0.181-0.005-0.342,0.085-0.436,0.236L32.625,45.144   L26.116,34.36c-0.092-0.152-0.255-0.236-0.435-0.242c-0.178,0.002-0.34,0.099-0.428,0.253L7.065,66.357   c-0.088,0.154-0.087,0.345,0.002,0.498c0.089,0.154,0.254,0.249,0.432,0.249h65c0.178,0,0.342-0.095,0.432-0.248   S73.022,66.514,72.936,66.359z"
       id="path815" /><path
       d="M62.351,27.019c3.894,0,7.062-3.168,7.062-7.062s-3.168-7.062-7.062-7.062s-7.062,3.168-7.062,7.062   S58.457,27.019,62.351,27.019z"
       id="path817" /></g><text
     xml:space="preserve"
     style="font-style:normal;font-weight:normal;font-size:21.33333397px;line-height:1.25;font-family:sans-serif;letter-spacing:0px;word-spacing:0px;fill:#000000;fill-opacity:1;stroke:none"
     x="18.377483"
     y="29.801325"
     id="text835"
     inkscape:export-filename="C:\Users\Voxel8\Documents\Visual Studio 2017\Projects\Voxel8RhinoPlugin\Voxel8RhinoPlugin\Resources\imagel.png"
     inkscape:export-xdpi="56.669552"
     inkscape:export-ydpi="56.669552"><tspan
       sodipodi:role="line"
       id="tspan833"
       x="18.377483"
       y="29.801325"
       style="font-style:normal;font-variant:normal;font-weight:bold;font-stretch:normal;font-size:21.33333397px;font-family:sans-serif;-inkscape-font-specification:'sans-serif Bold'">R</tspan></text>
</svg>