<svg xmlns="http://www.w3.org/2000/svg" xmlns:xlink="http://www.w3.org/1999/xlink" version="1.1" x="0px" y="0px" viewBox="0 0 80 100" enable-background="new 0 0 80 80" xml:space="preserve"><path d="M3.586,16.414c0.781,0.781,2.047,0.781,2.828,0L9,13.828V40c0,9.098,7.402,16.5,16.5,16.5S42,49.098,42,40  c0-6.893,5.607-12.5,12.5-12.5S67,33.107,67,40v31c0,1.104,0.896,2,2,2s2-0.896,2-2V40c0-9.098-7.402-16.5-16.5-16.5  S38,30.902,38,40c0,6.893-5.607,12.5-12.5,12.5S13,46.893,13,40V13.828l2.586,2.586C15.977,16.805,16.488,17,17,17  s1.023-0.195,1.414-0.586c0.781-0.781,0.781-2.047,0-2.828l-5.999-5.999c-0.093-0.094-0.196-0.177-0.307-0.251  c-0.047-0.032-0.099-0.053-0.148-0.081c-0.065-0.036-0.127-0.075-0.196-0.103c-0.065-0.027-0.133-0.042-0.2-0.062  c-0.058-0.017-0.113-0.039-0.173-0.051c-0.258-0.051-0.525-0.051-0.783,0c-0.06,0.012-0.115,0.034-0.173,0.051  c-0.067,0.02-0.135,0.035-0.2,0.062c-0.069,0.028-0.131,0.067-0.196,0.103C9.99,7.283,9.939,7.305,9.891,7.336  C9.781,7.41,9.678,7.494,9.585,7.587l-5.999,5.999C2.805,14.367,2.805,15.633,3.586,16.414z"/><text x="0" y="95" fill="#000000" font-size="5px" font-weight="bold" font-family="'Helvetica Neue', Helvetica, Arial-Unicode, Arial, Sans-serif">Created by Timofey Rostilov</text><text x="0" y="100" fill="#000000" font-size="5px" font-weight="bold" font-family="'Helvetica Neue', Helvetica, Arial-Unicode, Arial, Sans-serif">from the Noun Project</text></svg>