<svg xmlns="http://www.w3.org/2000/svg" xmlns:xlink="http://www.w3.org/1999/xlink" version="1.1" x="0px" y="0px" viewBox="0 0 512 640" enable-background="new 0 0 512 512" xml:space="preserve"><g><path d="M432.2,292.5c-26.1,55.3-95.2,94.7-176.2,94.7s-150.2-39.4-176.2-94.7c-7.3,12-11.2,24.9-11.2,38.4   c0,62.3,84,112.5,187.5,112.5S443.5,393.2,443.5,331C443.5,317.5,439.6,304.5,432.2,292.5z"/><path d="M256,331.1c51.8,0,93.7-42.5,93.7-94.9S256,68.5,256,68.5s-93.7,115.2-93.7,167.6S204.2,331.1,256,331.1z"/></g><text x="0" y="527" fill="#000000" font-size="5px" font-weight="bold" font-family="'Helvetica Neue', Helvetica, Arial-Unicode, Arial, Sans-serif">Created by Creative Stall</text><text x="0" y="532" fill="#000000" font-size="5px" font-weight="bold" font-family="'Helvetica Neue', Helvetica, Arial-Unicode, Arial, Sans-serif">from the Noun Project</text></svg>