<svg xmlns="http://www.w3.org/2000/svg" xmlns:xlink="http://www.w3.org/1999/xlink" version="1.1" viewBox="0 0 96 120" x="0px" y="0px"><path d="M94 96h-92c-1.104 0-2-0.9-2-2v-92c0-1.1 0.896-2 2-2h92c1.1 0 2 0.9 2 2v92c0 1.1-0.9 2-2 2zM4 92h88v-88h-88v88z" fill="#000000"/><path d="M2 18c-0.512 0-1.024-0.196-1.416-0.584-0.78-0.772-0.78-2.048 0-2.828l14-14c0.78-0.772 2.048-0.772 2.828 0 0.78 0.78 0.78 2.056 0 2.828l-14 14c-0.392 0.388-0.904 0.584-1.412 0.584z" fill="#000000"/><path d="M2 34c-0.512 0-1.024-0.196-1.416-0.584-0.78-0.772-0.78-2.048 0-2.828l30-30c0.78-0.772 2.048-0.772 2.828 0 0.78 0.78 0.78 2.056 0 2.828l-30 30c-0.388 0.388-0.9 0.584-1.412 0.584z" fill="#000000"/><path d="M2 50c-0.512 0-1.024-0.196-1.416-0.584-0.78-0.772-0.78-2.048 0-2.828l46-46c0.78-0.772 2.048-0.772 2.828 0 0.78 0.78 0.78 2.056 0 2.828l-46 46c-0.388 0.388-0.9 0.584-1.412 0.584z" fill="#000000"/><path d="M2.564 65.436c-0.512 0-1.024-0.196-1.416-0.584-0.78-0.78-0.78-2.048 0-2.828l61.436-61.44c0.776-0.772 2.048-0.772 2.828 0 0.776 0.78 0.776 2.056 0 2.828l-61.436 61.44c-0.392 0.392-0.9 0.584-1.412 0.584z" fill="#000000"/><path d="M2.564 81.436c-0.512 0-1.024-0.196-1.416-0.584-0.78-0.78-0.78-2.048 0-2.828l77.436-77.44c0.776-0.772 2.048-0.772 2.828 0 0.776 0.78 0.776 2.056 0 2.828l-77.436 77.44c-0.392 0.392-0.9 0.584-1.412 0.584z" fill="#000000"/><path d="M4 96c-0.512 0-1.024-0.196-1.416-0.584-0.78-0.772-0.78-2.048 0-2.828l90-90c0.776-0.772 2.048-0.772 2.828 0 0.776 0.78 0.776 2.056 0 2.828l-90 90c-0.388 0.388-0.9 0.584-1.412 0.584z" fill="#000000"/><path d="M20 96c-0.512 0-1.024-0.196-1.416-0.584-0.78-0.772-0.78-2.048 0-2.828l74-74c0.776-0.772 2.048-0.772 2.828 0 0.776 0.78 0.776 2.056 0 2.828l-74 74c-0.388 0.388-0.9 0.584-1.412 0.584z" fill="#000000"/><path d="M36 96c-0.512 0-1.024-0.196-1.416-0.584-0.78-0.772-0.78-2.048 0-2.828l58-58c0.776-0.772 2.048-0.772 2.828 0 0.776 0.78 0.776 2.056 0 2.828l-58 58c-0.388 0.388-0.9 0.584-1.412 0.584z" fill="#000000"/><path d="M52 96c-0.512 0-1.024-0.196-1.416-0.584-0.78-0.772-0.78-2.048 0-2.828l42-42c0.776-0.772 2.048-0.772 2.828 0 0.776 0.78 0.776 2.056 0 2.828l-42 42c-0.388 0.388-0.9 0.584-1.412 0.584z" fill="#000000"/><path d="M68 96c-0.512 0-1.024-0.196-1.416-0.584-0.78-0.772-0.78-2.048 0-2.828l26-26c0.776-0.772 2.048-0.772 2.828 0 0.776 0.78 0.776 2.056 0 2.828l-26 26c-0.388 0.388-0.9 0.584-1.412 0.584z" fill="#000000"/><path d="M84 96c-0.512 0-1.024-0.196-1.416-0.584-0.78-0.772-0.78-2.048 0-2.828l10-10c0.776-0.772 2.048-0.772 2.828 0 0.776 0.78 0.776 2.056 0 2.828l-10 10c-0.388 0.388-0.9 0.584-1.412 0.584z" fill="#000000"/><text x="0" y="111" fill="#000000" font-size="5px" font-weight="bold" font-family="'Helvetica Neue', Helvetica, Arial-Unicode, Arial, Sans-serif">Created by iconsmind.com</text><text x="0" y="116" fill="#000000" font-size="5px" font-weight="bold" font-family="'Helvetica Neue', Helvetica, Arial-Unicode, Arial, Sans-serif">from the Noun Project</text></svg>