<svg xmlns="http://www.w3.org/2000/svg" data-name="Layer 1" viewBox="0 0 100 125" x="0px" y="0px"><title>3Artboard 22</title><path d="M5,83a9,9,0,1,1,9,9A9,9,0,0,1,5,83Zm9-57a9,9,0,1,0-9-9A9,9,0,0,0,14,26Zm0,33a9,9,0,1,0-9-9A9,9,0,0,0,14,59ZM44,23H89a6,6,0,0,0,0-12H44a6,6,0,0,0,0,12Zm0,33H89a6,6,0,0,0,0-12H44a6,6,0,0,0,0,12Zm0,33H89a6,6,0,0,0,0-12H44a6,6,0,0,0,0,12Z"/><text x="0" y="115" fill="#000000" font-size="5px" font-weight="bold" font-family="'Helvetica Neue', Helvetica, Arial-Unicode, Arial, Sans-serif">Created by Gregor Cresnar</text><text x="0" y="120" fill="#000000" font-size="5px" font-weight="bold" font-family="'Helvetica Neue', Helvetica, Arial-Unicode, Arial, Sans-serif">from the Noun Project</text></svg>